<svg width="400" height="600" viewBox="0 0 400 600" xmlns="http://www.w3.org/2000/svg">
  <!-- Bulutlar -->
  <circle cx="80" cy="100" r="25" fill="#E3F2FD" opacity="0.8"/>
  <circle cx="110" cy="90" r="30" fill="#E3F2FD" opacity="0.8"/>
  <circle cx="140" cy="100" r="20" fill="#E3F2FD" opacity="0.8"/>
  
  <circle cx="300" cy="80" r="20" fill="#E3F2FD" opacity="0.8"/>
  <circle cx="325" cy="75" r="25" fill="#E3F2FD" opacity="0.8"/>
  <circle cx="350" cy="85" r="18" fill="#E3F2FD" opacity="0.8"/>
  
  <!-- Güneş -->
  <circle cx="350" cy="60" r="25" fill="#FFEB3B" opacity="0.9"/>
  <g stroke="#FFEB3B" stroke-width="3" opacity="0.8">
    <line x1="350" y1="20" x2="350" y2="30"/>
    <line x1="350" y1="90" x2="350" y2="100"/>
    <line x1="320" y1="60" x2="310" y2="60"/>
    <line x1="390" y1="60" x2="400" y2="60"/>
    <line x1="325" y1="25" x2="320" y2="20"/>
    <line x1="375" y1="25" x2="380" y2="20"/>
    <line x1="325" y1="95" x2="320" y2="100"/>
    <line x1="375" y1="95" x2="380" y2="100"/>
  </g>
  
  <!-- Ağaçlar -->
  <ellipse cx="50" cy="450" rx="40" ry="60" fill="#4CAF50" opacity="0.7"/>
  <rect x="45" y="450" width="10" height="80" fill="#8D6E63"/>
  
  <ellipse cx="320" cy="480" rx="35" ry="50" fill="#4CAF50" opacity="0.7"/>
  <rect x="315" y="480" width="10" height="70" fill="#8D6E63"/>
  
  <!-- Çiçekler -->
  <circle cx="100" cy="520" r="8" fill="#FF9800"/>
  <circle cx="105" cy="525" r="6" fill="#FF5722"/>
  <circle cx="95" cy="525" r="6" fill="#FF5722"/>
  <circle cx="100" cy="530" r="6" fill="#FF5722"/>
  <circle cx="100" cy="520" r="3" fill="#FFEB3B"/>
  
  <circle cx="200" cy="540" r="6" fill="#E91E63"/>
  <circle cx="205" cy="545" r="4" fill="#F06292"/>
  <circle cx="195" cy="545" r="4" fill="#F06292"/>
  <circle cx="200" cy="550" r="4" fill="#F06292"/>
  <circle cx="200" cy="540" r="2" fill="#FFEB3B"/>
  
  <!-- Kelebekler -->
  <g transform="translate(150, 200)">
    <ellipse cx="0" cy="0" rx="15" ry="8" fill="#FF5722" opacity="0.8"/>
    <ellipse cx="0" cy="0" rx="8" ry="15" fill="#FF9800" opacity="0.8"/>
    <circle cx="0" cy="0" r="3" fill="#333"/>
    <line x1="0" y1="0" x2="0" y2="20" stroke="#8D6E63" stroke-width="2"/>
  </g>
  
  <g transform="translate(250, 150)">
    <ellipse cx="0" cy="0" rx="12" ry="6" fill="#9C27B0" opacity="0.8"/>
    <ellipse cx="0" cy="0" rx="6" ry="12" fill="#E91E63" opacity="0.8"/>
    <circle cx="0" cy="0" r="2" fill="#333"/>
    <line x1="0" y1="0" x2="0" y2="15" stroke="#8D6E63" stroke-width="2"/>
  </g>
  
  <!-- Yıldızlar -->
  <g fill="#FFEB3B" opacity="0.6">
    <polygon points="80,50 85,65 100,65 87,75 92,90 80,80 68,90 73,75 60,65 75,65"/>
    <polygon points="280,120 283,130 293,130 285,135 288,145 280,140 272,145 275,135 267,130 277,130"/>
    <polygon points="120,300 123,310 133,310 125,315 128,325 120,320 112,325 115,315 107,310 117,310"/>
  </g>
  
  <!-- Kalp şekilleri -->
  <g fill="#F8BBD9" opacity="0.6">
    <path d="M180,400 C180,390 190,380 200,380 C210,380 220,390 220,400 C220,420 200,440 200,440 C200,440 180,420 180,400 Z"/>
    <path d="M300,350 C300,340 310,330 320,330 C330,330 340,340 340,350 C340,370 320,390 320,390 C320,390 300,370 300,350 Z"/>
  </g>
</svg>