<svg width="400" height="400" viewBox="0 0 400 400" xmlns="http://www.w3.org/2000/svg">
  <!-- Kelebek Vücudu -->
  <ellipse cx="200" cy="200" rx="8" ry="120" fill="none" stroke="#000" stroke-width="3"/>
  
  <!-- Üst Kanatlar -->
  <path d="M 200 120 Q 120 80 100 120 Q 120 160 200 140" fill="none" stroke="#000" stroke-width="3"/>
  <path d="M 200 120 Q 280 80 300 120 Q 280 160 200 140" fill="none" stroke="#000" stroke-width="3"/>
  
  <!-- Alt Kanatlar -->
  <path d="M 200 180 Q 140 200 120 240 Q 140 280 200 260" fill="none" stroke="#000" stroke-width="3"/>
  <path d="M 200 180 Q 260 200 280 240 Q 260 280 200 260" fill="none" stroke="#000" stroke-width="3"/>
  
  <!-- Kanat Detayları -->
  <circle cx="160" cy="100" r="15" fill="none" stroke="#000" stroke-width="2"/>
  <circle cx="240" cy="100" r="15" fill="none" stroke="#000" stroke-width="2"/>
  <circle cx="160" cy="220" r="12" fill="none" stroke="#000" stroke-width="2"/>
  <circle cx="240" cy="220" r="12" fill="none" stroke="#000" stroke-width="2"/>
  
  <!-- Antenler -->
  <line x1="200" y1="80" x2="190" y2="60" stroke="#000" stroke-width="2"/>
  <line x1="200" y1="80" x2="210" y2="60" stroke="#000" stroke-width="2"/>
  
  <!-- Anten Uçları -->
  <circle cx="190" cy="60" r="3" fill="none" stroke="#000" stroke-width="2"/>
  <circle cx="210" cy="60" r="3" fill="none" stroke="#000" stroke-width="2"/>
  
  <!-- Gözler -->
  <circle cx="195" cy="180" r="4" fill="none" stroke="#000" stroke-width="2"/>
  <circle cx="205" cy="180" r="4" fill="none" stroke="#000" stroke-width="2"/>
  
  <!-- Ağız -->
  <path d="M 200 190 Q 195 200 200 210" fill="none" stroke="#000" stroke-width="2"/>
</svg>
