<svg width="400" height="400" viewBox="0 0 400 400" xmlns="http://www.w3.org/2000/svg">
  <!-- Kedi Başı -->
  <circle cx="200" cy="150" r="80" fill="none" stroke="#000" stroke-width="3"/>
  
  <!-- Kulaklar -->
  <polygon points="140,100 160,60 180,100" fill="none" stroke="#000" stroke-width="3"/>
  <polygon points="220,100 240,60 260,100" fill="none" stroke="#000" stroke-width="3"/>
  
  <!-- İç Kulaklar -->
  <polygon points="150,85 160,70 170,85" fill="none" stroke="#000" stroke-width="2"/>
  <polygon points="230,85 240,70 250,85" fill="none" stroke="#000" stroke-width="2"/>
  
  <!-- Gözler -->
  <circle cx="175" cy="140" r="8" fill="none" stroke="#000" stroke-width="2"/>
  <circle cx="225" cy="140" r="8" fill="none" stroke="#000" stroke-width="2"/>
  
  <!-- Göz Bebekleri -->
  <circle cx="175" cy="140" r="4" fill="#000"/>
  <circle cx="225" cy="140" r="4" fill="#000"/>
  
  <!-- Burun -->
  <polygon points="200,160 195,170 205,170" fill="none" stroke="#000" stroke-width="2"/>
  
  <!-- Ağız -->
  <path d="M 200 170 Q 190 180 180 175" fill="none" stroke="#000" stroke-width="2"/>
  <path d="M 200 170 Q 210 180 220 175" fill="none" stroke="#000" stroke-width="2"/>
  
  <!-- Bıyıklar -->
  <line x1="120" y1="150" x2="160" y2="155" stroke="#000" stroke-width="2"/>
  <line x1="120" y1="160" x2="160" y2="160" stroke="#000" stroke-width="2"/>
  <line x1="120" y1="170" x2="160" y2="165" stroke="#000" stroke-width="2"/>
  
  <line x1="280" y1="150" x2="240" y2="155" stroke="#000" stroke-width="2"/>
  <line x1="280" y1="160" x2="240" y2="160" stroke="#000" stroke-width="2"/>
  <line x1="280" y1="170" x2="240" y2="165" stroke="#000" stroke-width="2"/>
  
  <!-- Vücut -->
  <ellipse cx="200" cy="280" rx="60" ry="80" fill="none" stroke="#000" stroke-width="3"/>
  
  <!-- Kuyruk -->
  <path d="M 260 280 Q 320 250 340 300 Q 320 350 280 320" fill="none" stroke="#000" stroke-width="3"/>
  
  <!-- Bacaklar -->
  <ellipse cx="170" cy="350" rx="15" ry="25" fill="none" stroke="#000" stroke-width="2"/>
  <ellipse cx="200" cy="350" rx="15" ry="25" fill="none" stroke="#000" stroke-width="2"/>
  <ellipse cx="230" cy="350" rx="15" ry="25" fill="none" stroke="#000" stroke-width="2"/>
  
  <!-- Patiler -->
  <circle cx="170" cy="375" r="8" fill="none" stroke="#000" stroke-width="2"/>
  <circle cx="200" cy="375" r="8" fill="none" stroke="#000" stroke-width="2"/>
  <circle cx="230" cy="375" r="8" fill="none" stroke="#000" stroke-width="2"/>
</svg>
