<svg width="400" height="400" viewBox="0 0 400 400" xmlns="http://www.w3.org/2000/svg">
  <!-- Köpek Başı -->
  <ellipse cx="200" cy="150" rx="70" ry="60" fill="none" stroke="#000" stroke-width="3"/>
  
  <!-- Kulaklar -->
  <ellipse cx="150" cy="120" rx="25" ry="40" fill="none" stroke="#000" stroke-width="3"/>
  <ellipse cx="250" cy="120" rx="25" ry="40" fill="none" stroke="#000" stroke-width="3"/>
  
  <!-- Gözler -->
  <circle cx="180" cy="140" r="8" fill="none" stroke="#000" stroke-width="2"/>
  <circle cx="220" cy="140" r="8" fill="none" stroke="#000" stroke-width="2"/>
  
  <!-- Göz Bebekleri -->
  <circle cx="180" cy="140" r="4" fill="#000"/>
  <circle cx="220" cy="140" r="4" fill="#000"/>
  
  <!-- Burun -->
  <ellipse cx="200" cy="165" rx="6" ry="4" fill="none" stroke="#000" stroke-width="2"/>
  
  <!-- Ağız -->
  <path d="M 200 175 Q 190 185 180 180" fill="none" stroke="#000" stroke-width="2"/>
  <path d="M 200 175 Q 210 185 220 180" fill="none" stroke="#000" stroke-width="2"/>
  
  <!-- Dil -->
  <ellipse cx="200" cy="185" rx="8" ry="12" fill="none" stroke="#000" stroke-width="2"/>
  
  <!-- Vücut -->
  <ellipse cx="200" cy="280" rx="80" ry="60" fill="none" stroke="#000" stroke-width="3"/>
  
  <!-- Kuyruk -->
  <path d="M 280 280 Q 320 250 340 280 Q 320 310 280 300" fill="none" stroke="#000" stroke-width="3"/>
  
  <!-- Ön Bacaklar -->
  <ellipse cx="160" cy="350" rx="20" ry="30" fill="none" stroke="#000" stroke-width="2"/>
  <ellipse cx="240" cy="350" rx="20" ry="30" fill="none" stroke="#000" stroke-width="2"/>
  
  <!-- Arka Bacaklar -->
  <ellipse cx="180" cy="360" rx="15" ry="25" fill="none" stroke="#000" stroke-width="2"/>
  <ellipse cx="220" cy="360" rx="15" ry="25" fill="none" stroke="#000" stroke-width="2"/>
  
  <!-- Patiler -->
  <ellipse cx="160" cy="380" rx="12" ry="8" fill="none" stroke="#000" stroke-width="2"/>
  <ellipse cx="240" cy="380" rx="12" ry="8" fill="none" stroke="#000" stroke-width="2"/>
  <ellipse cx="180" cy="385" rx="10" ry="6" fill="none" stroke="#000" stroke-width="2"/>
  <ellipse cx="220" cy="385" rx="10" ry="6" fill="none" stroke="#000" stroke-width="2"/>
</svg>
