<svg width="400" height="400" viewBox="0 0 400 400" xmlns="http://www.w3.org/2000/svg">
  <!-- Çiçek Merkezi -->
  <circle cx="200" cy="200" r="25" fill="none" stroke="#000" stroke-width="3"/>
  
  <!-- Taç Yaprakları -->
  <ellipse cx="200" cy="150" rx="30" ry="50" fill="none" stroke="#000" stroke-width="3" transform="rotate(0 200 200)"/>
  <ellipse cx="250" cy="200" rx="30" ry="50" fill="none" stroke="#000" stroke-width="3" transform="rotate(45 200 200)"/>
  <ellipse cx="200" cy="250" rx="30" ry="50" fill="none" stroke="#000" stroke-width="3" transform="rotate(90 200 200)"/>
  <ellipse cx="150" cy="200" rx="30" ry="50" fill="none" stroke="#000" stroke-width="3" transform="rotate(135 200 200)"/>
  <ellipse cx="200" cy="150" rx="30" ry="50" fill="none" stroke="#000" stroke-width="3" transform="rotate(180 200 200)"/>
  <ellipse cx="250" cy="200" rx="30" ry="50" fill="none" stroke="#000" stroke-width="3" transform="rotate(225 200 200)"/>
  <ellipse cx="200" cy="250" rx="30" ry="50" fill="none" stroke="#000" stroke-width="3" transform="rotate(270 200 200)"/>
  <ellipse cx="150" cy="200" rx="30" ry="50" fill="none" stroke="#000" stroke-width="3" transform="rotate(315 200 200)"/>
  
  <!-- Sap -->
  <line x1="200" y1="225" x2="200" y2="350" stroke="#000" stroke-width="4"/>
  
  <!-- Yapraklar -->
  <ellipse cx="180" cy="280" rx="20" ry="40" fill="none" stroke="#000" stroke-width="2" transform="rotate(-30 180 280)"/>
  <ellipse cx="220" cy="320" rx="20" ry="40" fill="none" stroke="#000" stroke-width="2" transform="rotate(30 220 320)"/>
  
  <!-- Toprak -->
  <ellipse cx="200" cy="370" rx="100" ry="20" fill="none" stroke="#000" stroke-width="2"/>
</svg>
