<svg width="400" height="400" viewBox="0 0 400 400" xmlns="http://www.w3.org/2000/svg">
  <!-- Ev Temeli -->
  <rect x="100" y="200" width="200" height="150" fill="none" stroke="#000" stroke-width="3"/>
  
  <!-- Çatı -->
  <polygon points="80,200 200,120 320,200" fill="none" stroke="#000" stroke-width="3"/>
  
  <!-- Kapı -->
  <rect x="180" y="280" width="40" height="70" fill="none" stroke="#000" stroke-width="3"/>
  
  <!-- Kapı Kolu -->
  <circle cx="210" cy="315" r="3" fill="none" stroke="#000" stroke-width="2"/>
  
  <!-- Pencereler -->
  <rect x="130" y="220" width="30" height="40" fill="none" stroke="#000" stroke-width="2"/>
  <rect x="240" y="220" width="30" height="40" fill="none" stroke="#000" stroke-width="2"/>
  
  <!-- Pencere Çerçeveleri -->
  <line x1="145" y1="220" x2="145" y2="260" stroke="#000" stroke-width="1"/>
  <line x1="130" y1="240" x2="160" y2="240" stroke="#000" stroke-width="1"/>
  <line x1="255" y1="220" x2="255" y2="260" stroke="#000" stroke-width="1"/>
  <line x1="240" y1="240" x2="270" y2="240" stroke="#000" stroke-width="1"/>
  
  <!-- Baca -->
  <rect x="250" y="150" width="20" height="50" fill="none" stroke="#000" stroke-width="2"/>
  
  <!-- Duman -->
  <path d="M 260 150 Q 270 140 280 150 Q 270 160 280 170" fill="none" stroke="#000" stroke-width="2"/>
  <path d="M 260 150 Q 275 135 290 150 Q 275 165 290 180" fill="none" stroke="#000" stroke-width="2"/>
  
  <!-- Güneş -->
  <circle cx="350" cy="80" r="25" fill="none" stroke="#000" stroke-width="3"/>
  
  <!-- Güneş Işınları -->
  <line x1="350" y1="50" x2="350" y2="40" stroke="#000" stroke-width="2"/>
  <line x1="370" y1="60" x2="380" y2="50" stroke="#000" stroke-width="2"/>
  <line x1="380" y1="80" x2="390" y2="80" stroke="#000" stroke-width="2"/>
  <line x1="370" y1="100" x2="380" y2="110" stroke="#000" stroke-width="2"/>
  <line x1="350" y1="110" x2="350" y2="120" stroke="#000" stroke-width="2"/>
  <line x1="330" y1="100" x2="320" y2="110" stroke="#000" stroke-width="2"/>
  <line x1="320" y1="80" x2="310" y2="80" stroke="#000" stroke-width="2"/>
  <line x1="330" y1="60" x2="320" y2="50" stroke="#000" stroke-width="2"/>
  
  <!-- Çim -->
  <path d="M 50 350 Q 100 340 150 350 Q 200 360 250 350 Q 300 340 350 350" fill="none" stroke="#000" stroke-width="2"/>
</svg>
